<?xml version="1.0" encoding="UTF-8"?>
<svg xmlns="http://www.w3.org/2000/svg" xmlns:xlink="http://www.w3.org/1999/xlink" viewBox="0 0 256 256" width="256px" height="256px">
<g id="surface351922271">
<path style=" stroke:none;fill-rule:nonzero;fill:rgb(20%,47.843137%,71.764708%);fill-opacity:1;" d="M 57.414062 24 C 45.6875 24 36 33.398438 36 45 L 36 215 C 36 226.601562 45.6875 236 57.414062 236 L 170.585938 236 C 182.3125 236 192 226.601562 192 215 L 192 45 C 192 33.398438 182.3125 24 170.585938 24 Z M 57.414062 32 L 170.585938 32 C 178.089844 32 184 37.828125 184 45 L 184 215 C 184 222.171875 178.089844 228 170.585938 228 L 57.414062 228 C 49.910156 228 44 222.171875 44 215 L 44 45 C 44 37.828125 49.910156 32 57.414062 32 Z M 64.921875 40 C 58.058594 40 52 45.171875 52 52 L 52 76 C 52 82.832031 58.058594 88 64.921875 88 L 163.078125 88 C 169.941406 88 176 82.832031 176 76 L 176 52 C 176 45.167969 169.945312 40 163.078125 40 Z M 64.921875 48 L 163.078125 48 C 166.070312 48 168 49.992188 168 52 L 168 76 C 168 78.007812 166.0625 80 163.078125 80 L 64.921875 80 C 61.929688 80 60 78.007812 60 76 L 60 52 C 60 49.988281 61.929688 48 64.921875 48 Z M 208 48 C 205.792969 48 204 49.789062 204 52 C 204 54.210938 205.792969 56 208 56 L 216 56 C 218.207031 56 220 54.210938 220 52 C 220 49.789062 218.207031 48 216 48 Z M 208 68 C 205.792969 68 204 69.789062 204 72 C 204 74.210938 205.792969 76 208 76 L 216 76 C 218.207031 76 220 74.210938 220 72 C 220 69.789062 218.207031 68 216 68 Z M 208 88 C 205.792969 88 204 89.789062 204 92 C 204 94.210938 205.792969 96 208 96 L 216 96 C 218.207031 96 220 94.210938 220 92 C 220 89.789062 218.207031 88 216 88 Z M 70 96 C 64.332031 96 59.574219 98.269531 56.507812 101.71875 C 53.441406 105.167969 52 109.609375 52 114 C 52 118.390625 53.441406 122.832031 56.507812 126.28125 C 59.574219 129.730469 64.332031 132 70 132 C 75.667969 132 80.425781 129.730469 83.492188 126.28125 C 86.558594 122.832031 88 118.390625 88 114 C 88 109.609375 86.558594 105.167969 83.492188 101.71875 C 80.425781 98.269531 75.667969 96 70 96 Z M 114 96 C 108.332031 96 103.574219 98.269531 100.507812 101.71875 C 97.441406 105.167969 96 109.609375 96 114 C 96 118.390625 97.441406 122.832031 100.507812 126.28125 C 103.574219 129.730469 108.332031 132 114 132 C 119.667969 132 124.425781 129.730469 127.492188 126.28125 C 130.558594 122.832031 132 118.390625 132 114 C 132 109.609375 130.558594 105.167969 127.492188 101.71875 C 124.425781 98.269531 119.667969 96 114 96 Z M 158 96 C 152.332031 96 147.574219 98.269531 144.507812 101.71875 C 141.441406 105.167969 140 109.609375 140 114 C 140 118.390625 141.441406 122.832031 144.507812 126.28125 C 147.574219 129.730469 152.332031 132 158 132 C 163.667969 132 168.425781 129.730469 171.492188 126.28125 C 174.558594 122.832031 176 118.390625 176 114 C 176 109.609375 174.558594 105.167969 171.492188 101.71875 C 168.425781 98.269531 163.667969 96 158 96 Z M 70 104 C 73.667969 104 75.90625 105.230469 77.507812 107.03125 C 79.109375 108.832031 80 111.390625 80 114 C 80 116.609375 79.109375 119.167969 77.507812 120.96875 C 75.90625 122.769531 73.667969 124 70 124 C 66.332031 124 64.09375 122.769531 62.492188 120.96875 C 60.890625 119.167969 60 116.609375 60 114 C 60 111.390625 60.890625 108.832031 62.492188 107.03125 C 64.09375 105.230469 66.332031 104 70 104 Z M 114 104 C 117.667969 104 119.90625 105.230469 121.507812 107.03125 C 123.109375 108.832031 124 111.390625 124 114 C 124 116.609375 123.109375 119.167969 121.507812 120.96875 C 119.90625 122.769531 117.667969 124 114 124 C 110.332031 124 108.09375 122.769531 106.492188 120.96875 C 104.890625 119.167969 104 116.609375 104 114 C 104 111.390625 104.890625 108.832031 106.492188 107.03125 C 108.09375 105.230469 110.332031 104 114 104 Z M 158 104 C 161.667969 104 163.90625 105.230469 165.507812 107.03125 C 167.109375 108.832031 168 111.390625 168 114 C 168 116.609375 167.109375 119.167969 165.507812 120.96875 C 163.90625 122.769531 161.667969 124 158 124 C 154.332031 124 152.09375 122.769531 150.492188 120.96875 C 148.890625 119.167969 148 116.609375 148 114 C 148 111.390625 148.890625 108.832031 150.492188 107.03125 C 152.09375 105.230469 154.332031 104 158 104 Z M 208 108 C 205.792969 108 204 109.789062 204 112 C 204 114.210938 205.792969 116 208 116 L 216 116 C 218.207031 116 220 114.210938 220 112 C 220 109.789062 218.207031 108 216 108 Z M 208 128 C 205.792969 128 204 129.789062 204 132 C 204 134.210938 205.792969 136 208 136 L 216 136 C 218.207031 136 220 134.210938 220 132 C 220 129.789062 218.207031 128 216 128 Z M 70 140 C 64.332031 140 59.574219 142.269531 56.507812 145.71875 C 53.441406 149.167969 52 153.609375 52 158 C 52 162.390625 53.441406 166.832031 56.507812 170.28125 C 59.574219 173.730469 64.332031 176 70 176 C 75.667969 176 80.425781 173.730469 83.492188 170.28125 C 86.558594 166.832031 88 162.390625 88 158 C 88 153.609375 86.558594 149.167969 83.492188 145.71875 C 80.425781 142.269531 75.667969 140 70 140 Z M 114 140 C 108.332031 140 103.574219 142.269531 100.507812 145.71875 C 97.441406 149.167969 96 153.609375 96 158 C 96 162.390625 97.441406 166.832031 100.507812 170.28125 C 103.574219 173.730469 108.332031 176 114 176 C 119.667969 176 124.425781 173.730469 127.492188 170.28125 C 130.558594 166.832031 132 162.390625 132 158 C 132 153.609375 130.558594 149.167969 127.492188 145.71875 C 124.425781 142.269531 119.667969 140 114 140 Z M 158 140 C 152.332031 140 147.574219 142.269531 144.507812 145.71875 C 141.441406 149.167969 140 153.609375 140 158 C 140 162.390625 141.441406 166.832031 144.507812 170.28125 C 147.574219 173.730469 152.332031 176 158 176 C 163.667969 176 168.425781 173.730469 171.492188 170.28125 C 174.558594 166.832031 176 162.390625 176 158 C 176 153.609375 174.558594 149.167969 171.492188 145.71875 C 168.425781 142.269531 163.667969 140 158 140 Z M 70 148 C 73.667969 148 75.90625 149.230469 77.507812 151.03125 C 79.109375 152.832031 80 155.390625 80 158 C 80 160.609375 79.109375 163.167969 77.507812 164.96875 C 75.90625 166.769531 73.667969 168 70 168 C 66.332031 168 64.09375 166.769531 62.492188 164.96875 C 60.890625 163.167969 60 160.609375 60 158 C 60 155.390625 60.890625 152.832031 62.492188 151.03125 C 64.09375 149.230469 66.332031 148 70 148 Z M 114 148 C 117.667969 148 119.90625 149.230469 121.507812 151.03125 C 123.109375 152.832031 124 155.390625 124 158 C 124 160.609375 123.109375 163.167969 121.507812 164.96875 C 119.90625 166.769531 117.667969 168 114 168 C 110.332031 168 108.09375 166.769531 106.492188 164.96875 C 104.890625 163.167969 104 160.609375 104 158 C 104 155.390625 104.890625 152.832031 106.492188 151.03125 C 108.09375 149.230469 110.332031 148 114 148 Z M 158 148 C 161.667969 148 163.90625 149.230469 165.507812 151.03125 C 167.109375 152.832031 168 155.390625 168 158 C 168 160.609375 167.109375 163.167969 165.507812 164.96875 C 163.90625 166.769531 161.667969 168 158 168 C 154.332031 168 152.09375 166.769531 150.492188 164.96875 C 148.890625 163.167969 148 160.609375 148 158 C 148 155.390625 148.890625 152.832031 150.492188 151.03125 C 152.09375 149.230469 154.332031 148 158 148 Z M 208 148 C 205.792969 148 204 149.789062 204 152 C 204 154.210938 205.792969 156 208 156 L 216 156 C 218.207031 156 220 154.210938 220 152 C 220 149.789062 218.207031 148 216 148 Z M 208 168 C 205.792969 168 204 169.789062 204 172 C 204 174.210938 205.792969 176 208 176 L 216 176 C 218.207031 176 220 174.210938 220 172 C 220 169.789062 218.207031 168 216 168 Z M 70 184 C 60.105469 184 52 192.105469 52 202 C 52 211.894531 60.105469 220 70 220 L 114 220 C 123.894531 220 132 211.894531 132 202 C 132 192.105469 123.894531 184 114 184 Z M 158 184 C 152.332031 184 147.574219 186.269531 144.507812 189.71875 C 141.441406 193.167969 140 197.609375 140 202 C 140 206.390625 141.441406 210.832031 144.507812 214.28125 C 147.574219 217.730469 152.332031 220 158 220 C 163.667969 220 168.425781 217.730469 171.492188 214.28125 C 174.558594 210.832031 176 206.390625 176 202 C 176 197.609375 174.558594 193.167969 171.492188 189.71875 C 168.425781 186.269531 163.667969 184 158 184 Z M 208 188 C 205.792969 188 204 189.789062 204 192 C 204 194.210938 205.792969 196 208 196 L 216 196 C 218.207031 196 220 194.210938 220 192 C 220 189.789062 218.207031 188 216 188 Z M 70 192 L 114 192 C 119.570312 192 124 196.429688 124 202 C 124 207.570312 119.570312 212 114 212 L 70 212 C 64.429688 212 60 207.570312 60 202 C 60 196.429688 64.429688 192 70 192 Z M 158 192 C 161.667969 192 163.90625 193.230469 165.507812 195.03125 C 167.109375 196.832031 168 199.390625 168 202 C 168 204.609375 167.109375 207.167969 165.507812 208.96875 C 163.90625 210.769531 161.667969 212 158 212 C 154.332031 212 152.09375 210.769531 150.492188 208.96875 C 148.890625 207.167969 148 204.609375 148 202 C 148 199.390625 148.890625 196.832031 150.492188 195.03125 C 152.09375 193.230469 154.332031 192 158 192 Z M 208 208 C 205.792969 208 204 209.789062 204 212 C 204 214.210938 205.792969 216 208 216 L 216 216 C 218.207031 216 220 214.210938 220 212 C 220 209.789062 218.207031 208 216 208 Z M 208 208 "/>
<path style=" stroke:none;fill-rule:nonzero;fill:rgb(80.000001%,80.000001%,80.000001%);fill-opacity:1;" d="M 204 256 C 175.328125 256 152 232.671875 152 204 C 152 175.328125 175.328125 152 204 152 C 232.671875 152 256 175.328125 256 204 C 256 232.671875 232.671875 256 204 256 Z M 204 160 C 179.738281 160 160 179.738281 160 204 C 160 228.261719 179.738281 248 204 248 C 228.261719 248 248 228.261719 248 204 C 248 179.738281 228.261719 160 204 160 Z M 228 200 L 208 200 L 208 180 C 208 177.789062 206.210938 176 204 176 C 201.789062 176 200 177.789062 200 180 L 200 200 L 180 200 C 177.789062 200 176 201.789062 176 204 C 176 206.210938 177.789062 208 180 208 L 200 208 L 200 228 C 200 230.210938 201.789062 232 204 232 C 206.210938 232 208 230.210938 208 228 L 208 208 L 228 208 C 230.210938 208 232 206.210938 232 204 C 232 201.789062 230.210938 200 228 200 Z M 228 200 "/>
</g>
</svg>
